PathFileType	4	(X/Y/Z)	C:\Users\°ÂÌØÂü\Desktop\20210112\bx_y_5_502-Unnamed.trc
DataRate	CameraRate	NumFrames	NumMarkers	Units	OrigDataRate	OrigDataStartFrame	OrigNumFrames
50.00	50.00	       9	0	mm	50.00	56	       447
Frame#	Time	
		

56	1.100	-372.27393	273.58545	1156.65881	-762.64154	204.99489	807.57935	-837.18262	-73.90617	687.84534	-759.17896	-21.68035	794.29102	-823.08496	272.98917	860.39099	-942.77545	82.33680	1086.38599	-799.15131	140.36621	563.47833	-850.92255	246.88554	619.32605	-345.41467	-49.94445	1151.91736	-855.33002	280.33020	729.25793	-836.48315	242.86488	562.18634	-858.60791	254.77182	483.08401	-773.07916	202.21216	533.69830	-728.54059	69.36633	221.81567	-720.38708	157.85052	221.91368	-776.86224	227.13490	201.12749	-882.68158	296.13046	144.56700	-677.54266	52.01702	163.30017	-677.53162	176.19164	162.18976	-596.44250	224.79605	173.10326	-666.84686	301.55765	157.25784	-629.07349	308.95148	160.65948	-562.74030	260.52823	164.80238	-528.15778	303.94531	146.19406	-143.78871	119.95976	1338.60034				-517.86298	-72.77510	142.47707	-563.19897	-39.45657	162.70154	-604.67841	18.45716	166.91740	-762.38525	-19.10954	997.23016				-797.80658	50.50674	173.68207	-799.74701	176.04625	181.74434	-849.64063	-46.93882	468.76392	-666.20929	-70.47231	159.39400	-773.99780	-13.33196	200.36418	-875.65533	-78.94249	141.29453	-823.71057	-41.22232	602.96271	-623.85706	-81.17332	157.12570	-829.44452	-83.38407	841.00464				-824.45251	-37.34145	555.94501							-764.57324	7.21788	523.48438	
57	1.120	-371.60443	274.09296	1152.02063	-762.95416	205.35036	807.29285	-837.77490	-73.53663	687.42609	-759.58105	-21.55666	794.32697	-823.99457	272.98148	860.21417	-942.82526	82.30431	1086.27942	-799.77740	140.54520	563.67963	-851.30499	246.91518	618.95563	-345.15002	-49.92762	1148.64246	-855.68774	280.38800	728.93628	-836.40930	242.81050	561.98462	-858.92126	254.94327	482.82230	-773.04822	202.25317	533.89954	-728.67963	69.65079	221.64922	-720.43762	157.66200	221.77960	-776.94855	226.90794	201.12148	-882.65179	296.02704	144.46056	-677.34772	52.01856	163.15656	-677.53162	176.19164	162.18976	-596.38031	224.72151	173.14928	-666.89331	301.40704	157.57910	-629.07349	308.95148	160.65948	-562.75897	260.51727	164.78006	-528.09875	303.84299	146.18364	-142.21648	120.93458	1333.28516				-518.00201	-72.73602	142.59116	-563.14154	-39.33371	162.69714	-604.79340	18.49853	166.98260	-762.84772	-18.89373	996.77417				-797.96808	50.59396	173.76997	-799.76886	176.11479	181.78175	-849.85834	-46.66280	468.66913	-666.20929	-70.47231	159.39400	-773.94885	-13.22473	200.56596	-875.97748	-78.88188	141.21204	-824.74756	-40.69352	602.77087	-623.93884	-81.33239	157.16428	-830.20758	-83.50233	840.68103				-824.98926	-37.03141	555.75720							-764.52496	7.38516	523.73224	
58	1.140				-763.62860	205.75410	806.72955				-760.00488	-21.45348	794.27924	-824.87238	273.45673	860.23810	-943.17438	82.54873	1086.44458	-799.84607	140.39185	563.70728	-851.64307	247.32095	618.86084	-344.86829	-49.47291	1145.31165	-855.90338	280.43408	728.59485	-836.66187	243.27208	562.27618	-859.17700	254.95700	482.76001	-773.18671	202.32417	533.82758	-728.49164	69.90974	221.80740	-720.67786	157.58517	222.09721	-776.89844	226.99327	201.07774	-882.63568	296.12158	144.50882	-677.53674	52.02990	163.27643	-677.20612	176.32297	161.94167	-596.32452	224.55267	173.18988	-666.84686	301.55765	157.25784	-628.98663	308.95633	160.57826	-562.74896	260.57471	165.01741	-528.03424	303.81082	146.12050	-141.39050	121.62255	1328.23389	-837.55304	-72.50202	688.86359	-517.88159	-72.76756	142.22453	-563.16364	-39.51076	162.66771	-604.79565	18.57267	167.01488	-763.26965	-18.76526	996.21466				-797.63611	50.64795	173.51440	-799.78705	176.07011	181.67986	-849.93530	-46.54515	468.72855	-666.17035	-70.44946	159.47025	-774.00977	-12.92445	200.31935	-875.97748	-78.88188	141.21204	-825.02124	-40.30254	602.34204	-623.85706	-81.17332	157.12570	-830.87592	-83.62942	840.85779				-825.10095	-36.89224	555.59546							-764.54492	7.50463	523.93011	
59	1.160	-370.36932	274.65247	1144.27759	-764.27234	205.71638	806.56592				-760.58557	-21.16294	794.46570	-825.28357	273.74457	859.82855	-943.50775	82.60329	1086.58887	-800.36694	140.45549	563.62775	-852.16351	247.22890	618.42352	-344.78415	-49.04117	1141.94641				-836.93054	243.40559	561.81915	-859.26910	255.02831	482.56027	-774.02606	202.64655	533.47919	-728.55103	70.14053	221.27121	-720.52551	157.60350	221.85287	-776.91272	227.12608	200.84563	-882.58575	296.13757	144.56622	-677.60925	52.16214	163.12924	-677.31866	176.32196	161.88518	-596.46124	224.67300	173.30243	-666.89331	301.40704	157.57910	-628.98663	308.95633	160.57826	-562.85846	260.47241	164.91032	-528.09741	303.98541	146.21492	-140.48370	122.19614	1323.25989	-837.55304	-72.50202	688.86359	-517.95203	-73.03406	142.42397	-563.19360	-39.49069	162.71117	-604.70715	18.53396	166.93582	-763.47693	-19.19133	995.97534				-797.64587	50.71809	173.51526	-799.90479	176.13641	181.58784	-849.93530	-46.54515	468.72855	-665.89862	-70.36125	159.52165	-773.95074	-12.90110	200.46263	-875.97748	-78.88188	141.21204	-825.02124	-40.30254	602.34204	-623.85706	-81.17332	157.12570	-831.30487	-83.08053	840.63782				-825.42346	-36.75134	555.49908							-764.54492	7.50463	523.93011	
60	1.180	-369.99728	274.97580	1140.94482	-764.78503	205.92847	806.61737	-857.10364	280.85187	727.81079	-761.07153	-20.76941	794.05060	-825.61890	274.07751	859.85248	-943.70825	82.77222	1086.95300	-800.84497	140.16379	563.60028	-852.82434	247.38023	618.36804							-837.61945	243.97810	562.29138	-859.83319	255.24286	482.69009	-774.25653	202.49290	533.49506	-728.53168	70.07102	221.33449	-720.69696	157.63870	221.77811	-776.91272	227.12608	200.84563	-882.74817	295.87421	144.38058	-677.60925	52.16214	163.12924	-677.26062	176.57571	162.11302	-596.46124	224.67300	173.30243	-667.00696	301.46707	157.35484	-628.98663	308.95633	160.57826	-562.74323	260.36557	164.91922	-528.08435	303.91180	146.17699	-139.67734	122.56336	1319.48792	-837.84637	-72.44498	688.67419	-517.77472	-72.98038	142.73814	-563.24146	-39.48568	162.63248	-604.65070	18.61731	166.92012	-764.33929	-18.44476	995.47339				-797.69708	50.66182	173.44150	-799.96094	176.23703	181.48132	-850.16870	-46.46251	468.76917	-666.07483	-70.42034	159.42392	-773.85449	-12.89867	200.29527	-875.97748	-78.88188	141.21204	-825.17676	-40.20662	602.14185	-623.85706	-81.17332	157.12570	-831.45801	-82.82471	840.60394				-825.54706	-36.52737	555.36060							-764.54492	7.50463	523.93011	
61	1.200	-369.88934	274.67813	1137.49097	-765.38245	206.02725	806.29413	-857.49579	281.25897	727.71741	-761.35333	-20.45613	793.82751	-826.77399	274.25009	859.64117	-943.83313	82.95357	1086.94739	-801.33240	140.48003	563.49731	-853.02759	247.85394	618.05890	-344.33435	-48.01147	1138.22229				-837.90204	243.85074	561.80835	-859.83240	255.50017	482.73904	-774.41589	202.84520	533.34082	-728.73956	69.82847	221.20982	-720.64954	157.77235	222.28084	-776.84772	227.18091	200.93703	-882.70959	296.00934	144.54216	-677.60925	52.16214	163.12924	-677.41418	176.64902	162.03084	-596.39734	224.54453	173.29921	-666.89331	301.40704	157.57910	-628.98663	308.95633	160.57826	-562.85492	260.52289	165.10573	-527.99371	303.70633	146.20621	-138.98981	123.08494	1315.95886	-838.77808	-72.53101	688.51813	-517.95361	-72.76327	142.34431	-563.16730	-39.36110	162.63286	-604.74579	18.44194	167.00865	-765.01727	-17.80746	994.90051				-797.69385	50.64000	173.57294	-799.90015	176.18250	181.58316	-850.28778	-46.53639	468.80997	-666.00848	-70.43717	159.52711	-773.98254	-13.17908	200.39275	-875.93359	-78.96604	141.13327	-825.51361	-40.38931	602.30017	-623.85706	-81.17332	157.12570	-831.96802	-82.89206	840.68085				-825.77460	-36.45713	555.11047							-765.08954	7.63591	523.88214	
62	1.220	-370.03851	274.78543	1134.95435	-765.89124	206.46198	806.62982	-857.95068	281.23172	727.48975	-761.89264	-20.48210	793.77539	-827.16254	274.27408	859.47638	-943.97656	83.56232	1086.87500	-801.33240	140.48003	563.49731	-853.31909	248.08643	618.32050	-344.78235	-46.72768	1135.73755				-838.27783	243.89461	561.73993	-860.25916	255.55841	482.56454	-774.53741	203.01291	533.24811	-728.75757	70.02763	221.48050	-720.97858	157.66203	222.21410	-776.90613	227.13332	201.03600	-882.67053	296.19333	144.58157	-677.44037	52.16190	163.00725	-677.27136	176.56952	162.18129	-596.49371	224.58336	173.18822	-667.01300	301.28043	157.59491	-628.98663	308.95633	160.57826	-562.76648	260.40225	165.03757	-527.98743	303.91977	146.25874	-138.81429	123.43731	1313.06860	-839.16693	-72.13150	688.49261	-517.86957	-72.76241	142.72134	-563.20502	-39.40873	162.79724	-604.76691	18.49587	166.99648	-764.94501	-17.98072	994.83148				-797.74506	50.58372	173.49918	-799.87628	176.15309	181.66254	-850.45221	-46.55849	468.79596	-666.09698	-70.30975	159.43163	-773.98254	-13.17908	200.39275	-875.97748	-78.88188	141.21204	-825.94275	-40.34114	602.30145	-623.85706	-81.17332	157.12570	-832.52307	-82.33554	840.26166				-826.09418	-36.46083	555.42188							-765.54633	7.66728	523.71478	
63	1.240	-370.28183	274.86313	1132.40723	-766.08417	206.91298	806.19104	-858.33624	281.54126	727.46631	-762.34711	-20.34438	794.05170	-827.56409	274.53177	859.17743	-944.23724	83.83529	1086.92810	-801.68982	141.04494	563.31714	-853.49133	248.02353	617.97357	-344.55890	-46.63394	1134.75452				-838.44366	243.77448	561.47321	-860.55304	255.84447	482.34882	-774.75598	203.27591	533.50323	-728.74768	70.12135	221.33293	-720.96570	158.11502	222.24414	-776.84772	227.18091	200.93703	-882.66003	296.13315	144.60139	-677.60925	52.16214	163.12924	-677.26324	176.60783	162.25584	-596.46014	224.58820	173.04533	-667.13885	301.12308	157.43469	-628.94861	308.86935	160.72382	-562.69678	260.43161	164.95776	-528.09027	304.00369	146.18755	-138.47864	123.53168	1310.73718	-839.46661	-72.11922	688.49237	-517.82715	-72.87961	142.35971	-563.23108	-39.50248	162.87691	-604.93896	18.60507	167.03035	-765.85205	-17.45287	994.48450				-797.86365	50.61242	173.67033	-799.80420	176.19064	181.70941	-850.56689	-46.38387	468.61264	-666.07635	-70.38160	159.46878	-774.04785	-13.11559	200.55469	-875.83032	-78.95947	141.07770	-826.53693	-40.00226	602.31360	-623.85706	-81.17332	157.12570	-832.78479	-82.32640	840.55414				-826.40369	-36.01184	555.10925							-765.68848	7.83406	523.63446	
64	1.260	-370.34030	274.88193	1130.30811	-766.69952	206.95221	806.14008	-859.08148	281.61002	727.39905	-762.64874	-20.16503	794.04779	-827.92444	274.92493	859.43542	-944.67535	84.09640	1086.92786	-801.72858	141.11858	563.45990	-853.63629	248.02742	617.93793	-344.33566	-46.63748	1134.55347				-838.53369	243.76234	561.27777	-860.63318	255.48920	482.12646	-775.00537	203.12596	533.33130	-728.75757	70.02763	221.48050	-720.82214	158.10506	222.25383	-776.73431	227.26508	200.96518	-882.81903	296.03305	144.49423	-677.60925	52.16214	163.12924	-677.29645	176.49654	162.10654	-596.50409	224.66916	173.09991	-666.70013	301.48615	157.18480	-628.98663	308.95633	160.57826	-562.81891	260.37119	164.92789	-528.05090	304.05771	146.16211	-138.67310	124.35753	1308.75256	-839.99768	-72.14232	688.36749	-517.82715	-72.87961	142.35971	-563.24750	-39.43783	162.72818	-604.93896	18.60507	167.03035	-766.71143	-17.01331	994.01117				-797.63611	50.64795	173.51440	-799.89130	176.41841	181.50117	-850.88165	-46.14370	468.68021	-666.00824	-70.22947	159.62553	-773.81622	-13.12617	200.61290	-875.64880	-79.04969	141.18465	-826.74988	-39.79715	602.11896	-623.85706	-81.17332	157.12570	-833.53290	-82.17816	840.50653				-826.53583	-35.99541	555.16748							-765.76263	7.96280	523.83649	
